<?xml version="1.0" standalone="no"?>
<!DOCTYPE svg PUBLIC "-//W3C//DTD SVG 20010904//EN"
 "http://www.w3.org/TR/2001/REC-SVG-20010904/DTD/svg10.dtd">
<svg version="1.0" xmlns="http://www.w3.org/2000/svg"
 width="619.000000pt" height="186.000000pt" viewBox="0 0 619.000000 186.000000"
 preserveAspectRatio="xMidYMid meet">

<g transform="translate(0.000000,186.000000) scale(0.100000,-0.100000)"
fill="#000000" stroke="none">
<path d="M910 1401 c-143 -39 -259 -129 -319 -249 -17 -34 -31 -64 -31 -67 0
-3 27 -5 60 -5 59 0 60 -1 85 -40 14 -22 25 -43 25 -48 0 -5 -16 -16 -35 -25
-45 -22 -75 -71 -75 -123 0 -146 168 -286 371 -309 190 -21 411 100 454 250
27 90 7 135 -85 196 l-24 16 30 41 c28 40 31 42 87 42 31 0 57 3 57 6 0 3 -13
34 -30 68 -32 69 -115 155 -190 199 -59 34 -189 67 -259 66 -31 0 -85 -8 -121
-18z m70 -221 c0 -12 7 -20 18 -20 9 0 26 -7 36 -15 17 -13 21 -13 31 2 10 13
17 14 48 4 20 -7 41 -10 47 -6 5 3 25 -25 43 -62 44 -91 74 -123 110 -116 15
3 27 1 27 -4 0 -14 -32 -55 -68 -87 -32 -28 -33 -32 -27 -77 6 -44 5 -49 -19
-65 -18 -11 -25 -23 -21 -34 3 -9 -1 -23 -10 -30 -8 -7 -15 -18 -15 -24 0 -7
-10 -22 -22 -33 -27 -24 -108 -42 -108 -23 0 7 -7 28 -16 48 -9 21 -22 52 -30
69 -10 24 -11 40 -4 59 8 21 6 36 -10 68 -11 23 -20 50 -20 59 0 20 -54 32
-111 24 -35 -5 -45 -1 -75 25 -30 27 -34 36 -34 80 0 42 5 54 30 80 17 16 30
35 30 42 0 21 80 54 133 55 31 1 37 -2 37 -19z m338 -466 c-8 -22 -19 -39 -28
-39 -24 0 -14 63 13 85 28 23 33 9 15 -46z"/>
<path d="M3237 1315 c-81 -28 -127 -100 -127 -200 0 -74 25 -133 72 -168 36
-28 122 -51 160 -44 15 3 11 5 -13 6 -42 1 -82 29 -107 74 -12 24 -17 57 -17
132 0 75 5 108 17 132 27 49 64 73 114 73 40 0 47 -4 74 -42 l30 -41 0 32 c0
27 -5 34 -35 47 -43 18 -118 17 -168 -1z"/>
<path d="M4027 1315 c-81 -28 -127 -100 -127 -200 0 -74 25 -133 72 -168 36
-28 122 -51 160 -44 15 3 11 5 -13 6 -42 1 -82 29 -107 74 -12 24 -17 57 -17
132 0 75 5 108 17 132 27 49 64 73 114 73 40 0 47 -4 74 -42 l30 -41 0 32 c0
27 -5 34 -35 47 -43 18 -118 17 -168 -1z"/>
<path d="M2491 1289 c-7 -19 -7 -36 -2 -43 5 -6 30 -78 56 -160 45 -142 46
-150 29 -163 -15 -11 -7 -13 61 -13 74 0 77 1 62 18 -9 9 -45 100 -80 202 -59
171 -66 185 -89 188 -21 3 -28 -3 -37 -29z"/>
<path d="M2778 1308 c8 -8 12 -66 12 -195 0 -163 -2 -183 -17 -192 -13 -8 5
-10 67 -10 68 0 81 2 63 11 -21 10 -23 17 -23 105 l0 93 39 0 c31 0 44 -6 60
-26 l21 -27 -1 54 c0 52 -1 53 -16 32 -12 -18 -25 -23 -59 -23 l-44 0 0 90 0
90 63 0 64 0 26 -47 27 -48 0 37 c0 69 3 68 -153 68 -110 0 -138 -3 -129 -12z"/>
<path d="M3651 1289 c-7 -19 -7 -36 -2 -43 5 -6 30 -78 56 -160 45 -142 46
-150 29 -163 -15 -11 -7 -13 61 -13 74 0 77 1 62 18 -9 9 -45 100 -80 202 -59
171 -66 185 -89 188 -21 3 -28 -3 -37 -29z"/>
<path d="M2466 1225 c-9 -26 -7 -32 5 -12 6 10 9 21 6 23 -2 3 -7 -2 -11 -11z"/>
<path d="M3626 1225 c-9 -26 -7 -32 5 -12 6 10 9 21 6 23 -2 3 -7 -2 -11 -11z"/>
<path d="M560 1060 c0 -5 22 -10 50 -10 39 0 52 -4 60 -20 9 -16 6 -22 -19
-35 -17 -8 -46 -15 -65 -15 -32 0 -35 -2 -41 -39 -4 -23 -2 -48 4 -60 6 -11
11 -29 11 -41 0 -39 62 -144 119 -201 91 -90 230 -148 357 -149 67 0 193 33
256 67 138 75 237 233 238 381 l0 42 -44 0 c-56 0 -98 29 -77 54 9 11 30 16
62 16 27 0 49 5 49 10 0 6 -26 10 -59 10 -58 0 -60 -1 -82 -37 -22 -35 -22
-37 -5 -47 80 -47 106 -105 87 -192 -39 -173 -291 -304 -509 -265 -103 18
-183 60 -257 134 -67 67 -85 106 -85 185 0 55 22 92 71 124 l39 25 -23 34
c-21 31 -27 34 -80 37 -35 2 -57 -1 -57 -8z"/>
<path d="M2410 1060 c0 -5 5 -10 11 -10 5 0 7 5 4 10 -3 6 -8 10 -11 10 -2 0
-4 -4 -4 -10z"/>
<path d="M3570 1060 c0 -5 5 -10 11 -10 5 0 7 5 4 10 -3 6 -8 10 -11 10 -2 0
-4 -4 -4 -10z"/>
<path d="M2380 976 c-6 -20 -21 -43 -33 -51 -20 -14 -19 -15 23 -15 39 0 42 1
25 13 -16 12 -16 18 -6 47 6 18 9 35 7 37 -2 3 -9 -12 -16 -31z"/>
<path d="M3422 965 c-13 -27 -29 -45 -39 -45 -9 0 -14 -3 -10 -6 3 -3 22 -1
41 6 33 11 36 15 36 51 0 21 -1 39 -3 39 -2 0 -13 -20 -25 -45z"/>
<path d="M3540 976 c-6 -20 -21 -43 -33 -51 -20 -14 -19 -15 23 -15 39 0 42 1
25 13 -16 12 -16 18 -6 47 6 18 9 35 7 37 -2 3 -9 -12 -16 -31z"/>
<path d="M4212 965 c-13 -27 -29 -45 -39 -45 -9 0 -14 -3 -10 -6 3 -3 22 -1
41 6 33 11 36 15 36 51 0 21 -1 39 -3 39 -2 0 -13 -20 -25 -45z"/>
<path d="M252 943 c48 -2 129 -2 180 0 51 1 12 3 -87 3 -99 0 -141 -2 -93 -3z"/>
<path d="M1638 943 c50 -2 134 -2 185 0 50 1 9 3 -93 3 -102 0 -143 -2 -92 -3z"/>
<path d="M2524 402 c-22 -14 -30 -48 -26 -99 5 -64 22 -71 22 -9 0 32 5 46 18
51 16 7 16 8 -2 14 -17 7 -17 8 -2 23 24 25 17 39 -10 20z"/>
<path d="M4452 398 c-7 -7 -12 -17 -12 -24 0 -7 -6 -15 -12 -18 -10 -5 -10 -7
0 -12 7 -3 12 -24 12 -50 0 -24 5 -44 10 -44 6 0 10 20 10 44 0 26 5 46 13 49
9 4 8 8 -3 16 -13 10 -13 13 3 25 9 7 17 16 17 20 0 10 -25 7 -38 -6z"/>
<path d="M5060 381 c0 -24 -3 -28 -20 -24 -29 8 -50 -14 -50 -52 0 -39 14 -52
58 -52 l32 0 0 79 c0 45 -4 78 -10 78 -5 0 -10 -13 -10 -29z m-5 -76 c0 -23
-4 -30 -20 -30 -15 0 -21 8 -23 33 -3 30 -1 33 20 30 18 -2 23 -9 23 -33z"/>
<path d="M2376 335 c-14 -36 -26 -70 -26 -75 0 -18 19 -10 25 10 4 14 15 20
35 20 20 0 31 -6 35 -20 6 -19 25 -29 25 -13 0 18 -53 143 -60 143 -4 0 -20
-29 -34 -65z m48 3 c9 -35 8 -38 -14 -38 -11 0 -20 3 -20 8 0 19 13 52 20 52
4 0 10 -10 14 -22z"/>
<path d="M2650 390 c0 -5 5 -10 10 -10 6 0 10 5 10 10 0 6 -4 10 -10 10 -5 0
-10 -4 -10 -10z"/>
<path d="M3108 328 c-28 -73 -28 -101 -1 -60 9 12 26 22 38 22 12 0 29 -10 38
-22 8 -13 17 -21 20 -18 9 9 -46 150 -58 150 -6 0 -22 -32 -37 -72z m56 -20
c-7 -10 -31 -10 -37 0 -3 4 0 18 5 32 l9 25 14 -25 c7 -14 11 -28 9 -32z"/>
<path d="M3330 390 c0 -5 5 -10 10 -10 6 0 10 5 10 10 0 6 -4 10 -10 10 -5 0
-10 -4 -10 -10z"/>
<path d="M3570 390 c0 -5 5 -10 10 -10 6 0 10 5 10 10 0 6 -4 10 -10 10 -5 0
-10 -4 -10 -10z"/>
<path d="M3890 390 c0 -5 11 -10 25 -10 24 0 25 -2 25 -65 0 -37 4 -65 10 -65
6 0 10 28 10 65 0 63 1 65 25 65 14 0 25 5 25 10 0 6 -27 10 -60 10 -33 0 -60
-4 -60 -10z"/>
<path d="M3500 375 c0 -8 -5 -15 -12 -15 -9 0 -9 -3 0 -12 7 -7 12 -24 12 -39
0 -15 3 -34 6 -43 7 -17 34 -22 34 -6 0 6 -4 10 -10 10 -15 0 -12 67 3 74 10
5 10 7 0 12 -7 3 -13 12 -13 20 0 8 -4 14 -10 14 -5 0 -10 -7 -10 -15z"/>
<path d="M2570 304 c0 -30 5 -54 10 -54 6 0 10 18 10 40 0 27 5 43 15 46 23 9
18 22 -10 22 -24 0 -25 -4 -25 -54z"/>
<path d="M2650 305 c0 -30 5 -55 10 -55 6 0 10 25 10 55 0 30 -4 55 -10 55 -5
0 -10 -25 -10 -55z"/>
<path d="M2706 344 c-9 -8 -16 -26 -16 -39 0 -45 53 -72 79 -41 10 12 6 14
-21 13 -30 -2 -33 0 -33 28 0 32 31 48 46 24 4 -7 11 -10 15 -6 10 10 -16 37
-37 37 -9 0 -25 -7 -33 -16z"/>
<path d="M2815 349 c-10 -16 3 -23 18 -10 11 9 17 8 27 -4 11 -13 8 -16 -20
-21 -60 -12 -47 -64 16 -62 33 1 34 2 34 43 0 22 -5 46 -12 53 -15 15 -55 16
-63 1z m55 -58 c0 -6 -5 -13 -10 -16 -15 -9 -43 3 -35 15 8 13 45 13 45 1z"/>
<path d="M2920 303 c0 -63 17 -72 22 -10 2 34 7 42 23 42 16 0 21 -8 23 -42 4
-56 22 -55 22 1 0 51 -13 65 -58 64 -32 -1 -32 -1 -32 -55z"/>
<path d="M3220 352 c0 -24 34 -102 43 -99 6 2 19 27 28 56 12 34 14 51 7 49
-6 -2 -17 -20 -24 -39 l-12 -34 -11 28 c-6 16 -11 33 -11 38 0 5 -4 9 -10 9
-5 0 -10 -4 -10 -8z"/>
<path d="M3330 305 c0 -30 5 -55 10 -55 6 0 10 25 10 55 0 30 -4 55 -10 55 -5
0 -10 -25 -10 -55z"/>
<path d="M3390 346 c-11 -14 -9 -15 19 -10 41 8 41 -11 0 -25 -24 -8 -30 -15
-27 -33 2 -19 10 -23 43 -25 l40 -2 -5 52 c-4 47 -8 52 -31 55 -14 2 -31 -4
-39 -12z m50 -61 c0 -8 -9 -15 -20 -15 -11 0 -20 7 -20 15 0 8 9 15 20 15 11
0 20 -7 20 -15z"/>
<path d="M3570 305 c0 -30 5 -55 10 -55 6 0 10 25 10 55 0 30 -4 55 -10 55 -5
0 -10 -25 -10 -55z"/>
<path d="M3627 342 c-21 -23 -22 -56 -1 -76 22 -22 50 -20 68 6 20 29 20 52 0
72 -21 21 -47 20 -67 -2z m58 -21 c8 -26 -4 -51 -26 -51 -20 0 -36 40 -24 59
10 18 43 12 50 -8z"/>
<path d="M3730 303 c0 -40 4 -53 15 -53 11 0 15 12 15 45 0 38 3 45 20 45 17
0 20 -7 20 -45 0 -25 5 -45 11 -45 6 0 9 21 7 53 l-3 52 -42 1 -43 1 0 -54z"/>
<path d="M4020 304 c0 -30 5 -54 10 -54 6 0 10 18 10 40 0 27 5 43 15 46 23 9
18 22 -10 22 -24 0 -25 -4 -25 -54z"/>
<path d="M4100 346 c-11 -14 -9 -15 19 -10 41 8 41 -11 0 -25 -24 -8 -30 -15
-27 -33 2 -19 10 -23 43 -25 l40 -2 -5 52 c-4 47 -8 52 -31 55 -14 2 -31 -4
-39 -12z m50 -61 c0 -8 -9 -15 -20 -15 -11 0 -20 7 -20 15 0 8 9 15 20 15 11
0 20 -7 20 -15z"/>
<path d="M4200 303 c0 -40 4 -53 15 -53 11 0 15 12 15 45 0 38 3 45 20 45 17
0 20 -7 20 -45 0 -25 5 -45 11 -45 6 0 9 21 7 53 l-3 52 -42 1 -43 1 0 -54z"/>
<path d="M4333 353 c-24 -9 -14 -41 17 -52 17 -5 30 -15 30 -22 0 -7 -10 -9
-30 -5 -33 6 -42 -9 -10 -19 56 -18 85 37 30 56 -16 6 -30 14 -30 18 0 16 13
20 32 10 23 -13 39 -2 18 11 -16 10 -37 11 -57 3z"/>
<path d="M4517 342 c-21 -23 -22 -56 -1 -76 22 -22 50 -20 68 6 20 29 20 52 0
72 -21 21 -47 20 -67 -2z m58 -21 c8 -26 -4 -51 -26 -51 -20 0 -36 40 -24 59
10 18 43 12 50 -8z"/>
<path d="M4620 303 c0 -40 4 -53 15 -53 11 0 15 12 15 45 0 33 4 45 15 45 8 0
15 4 15 8 0 5 -13 9 -30 9 -30 0 -30 -1 -30 -54z"/>
<path d="M4690 303 c0 -40 4 -53 15 -53 11 0 15 12 15 45 0 38 3 45 20 45 17
0 20 -7 20 -45 0 -57 18 -59 22 -2 2 34 7 42 23 42 16 0 21 -8 23 -42 2 -24 7
-43 13 -43 14 0 11 86 -3 98 -7 5 -43 9 -80 9 l-68 -1 0 -53z"/>
<path d="M4892 348 c-17 -17 -15 -73 2 -88 17 -13 58 -10 63 5 2 6 -9 11 -23
10 -15 0 -29 6 -31 13 -3 8 7 12 31 12 38 0 43 8 26 41 -12 21 -50 25 -68 7z
m49 -23 c0 -5 -9 -11 -21 -13 -20 -3 -27 8 -13 22 10 9 34 3 34 -9z"/>
</g>
</svg>
