<?xml version="1.0" encoding="utf-8"?>
<!-- Generator: Adobe Illustrator 26.0.2, SVG Export Plug-In . SVG Version: 6.00 Build 0)  -->
<svg version="1.1" id="Layer_1" xmlns="http://www.w3.org/2000/svg" xmlns:xlink="http://www.w3.org/1999/xlink" x="0px" y="0px"
	 viewBox="0 0 425.7 239.6" style="enable-background:new 0 0 425.7 239.6;" xml:space="preserve">
<style type="text/css">
	.st0{fill:#1E1A37;}
	.st1{fill:#38EC9D;}
</style>
<g>
	<path class="st0" d="M64.1,179.7c-1.1-0.4-1.9-0.8-2.5-1.4l0.8-1.7c0.6,0.5,1.3,0.9,2.2,1.3c0.9,0.3,1.8,0.5,2.8,0.5
		c1.3,0,2.2-0.2,2.8-0.6c0.6-0.4,0.9-1,0.9-1.7c0-0.5-0.2-0.9-0.5-1.3c-0.3-0.3-0.8-0.6-1.3-0.7c-0.5-0.2-1.2-0.4-2.1-0.6
		c-1.1-0.3-2.1-0.6-2.8-0.8c-0.7-0.3-1.3-0.7-1.8-1.3c-0.5-0.6-0.7-1.3-0.7-2.3c0-0.8,0.2-1.5,0.6-2.2c0.4-0.7,1.1-1.2,1.9-1.6
		c0.9-0.4,1.9-0.6,3.2-0.6c0.9,0,1.8,0.1,2.6,0.3c0.9,0.2,1.6,0.6,2.2,1l-0.7,1.7c-0.6-0.4-1.3-0.7-2-0.9c-0.7-0.2-1.4-0.3-2.1-0.3
		c-1.2,0-2.2,0.2-2.8,0.7c-0.6,0.4-0.9,1-0.9,1.7c0,0.5,0.2,0.9,0.5,1.3c0.3,0.3,0.8,0.6,1.3,0.8c0.5,0.2,1.2,0.4,2.1,0.6
		c1.1,0.3,2.1,0.6,2.8,0.8c0.7,0.3,1.3,0.7,1.8,1.3c0.5,0.6,0.7,1.3,0.7,2.3c0,0.8-0.2,1.5-0.7,2.2c-0.4,0.7-1.1,1.2-2,1.6
		c-0.9,0.4-2,0.6-3.3,0.6C66.2,180.2,65.1,180,64.1,179.7z"/>
	<path class="st0" d="M88.6,164.8V180h-2.2v-6.8h-8.7v6.8h-2.2v-15.2h2.2v6.5h8.7v-6.5H88.6z"/>
	<path class="st0" d="M102,176.2h-8.1l-1.7,3.8H90l6.9-15.2h2.1L106,180h-2.3L102,176.2z M101.2,174.5l-3.3-7.4l-3.3,7.4H101.2z"/>
	<path class="st0" d="M117.9,166.3c1.1,0.9,1.7,2.2,1.7,3.9c0,1.6-0.6,2.9-1.7,3.9c-1.1,0.9-2.7,1.4-4.6,1.4h-3.8v4.6h-2.2v-15.2
		h5.9C115.2,164.8,116.8,165.3,117.9,166.3z M116.3,172.7c0.7-0.6,1.1-1.4,1.1-2.5c0-1.1-0.4-1.9-1.1-2.5c-0.7-0.6-1.8-0.9-3.1-0.9
		h-3.7v6.8h3.7C114.6,173.5,115.6,173.2,116.3,172.7z"/>
	<path class="st0" d="M121.9,164.8h2.2V180h-2.2V164.8z"/>
	<path class="st0" d="M140.9,164.8V180h-1.8l-9.1-11.3V180h-2.2v-15.2h1.8l9.1,11.3v-11.3H140.9z"/>
	<path class="st0" d="M155.1,172.3h2.1v5.9c-0.8,0.6-1.6,1.1-2.6,1.4c-1,0.3-2,0.5-3.1,0.5c-1.5,0-2.9-0.3-4.1-1
		c-1.2-0.7-2.2-1.6-2.9-2.8c-0.7-1.2-1.1-2.5-1.1-4c0-1.5,0.4-2.8,1.1-4c0.7-1.2,1.7-2.1,2.9-2.8c1.2-0.7,2.6-1,4.2-1
		c1.2,0,2.3,0.2,3.3,0.6c1,0.4,1.8,1,2.5,1.7l-1.3,1.3c-1.2-1.2-2.7-1.8-4.4-1.8c-1.2,0-2.2,0.2-3.1,0.7c-0.9,0.5-1.6,1.2-2.2,2.1
		c-0.5,0.9-0.8,1.9-0.8,3c0,1.1,0.3,2.1,0.8,3c0.5,0.9,1.2,1.6,2.2,2.1c0.9,0.5,1.9,0.8,3.1,0.8c1.4,0,2.5-0.3,3.6-1V172.3z"/>
	<path class="st0" d="M168.1,179.2c-1.2-0.7-2.2-1.6-2.9-2.8c-0.7-1.2-1.1-2.5-1.1-4c0-1.5,0.4-2.8,1.1-4c0.7-1.2,1.7-2.1,2.9-2.8
		c1.2-0.7,2.6-1,4.1-1c1.5,0,2.9,0.3,4.1,1c1.2,0.7,2.2,1.6,2.9,2.8c0.7,1.2,1,2.5,1,4c0,1.5-0.3,2.8-1,4c-0.7,1.2-1.7,2.1-2.9,2.8
		c-1.2,0.7-2.6,1-4.1,1C170.7,180.2,169.3,179.9,168.1,179.2z M175.3,177.5c0.9-0.5,1.6-1.2,2.1-2.1c0.5-0.9,0.8-1.9,0.8-3
		c0-1.1-0.3-2.1-0.8-3c-0.5-0.9-1.2-1.6-2.1-2.1c-0.9-0.5-1.9-0.8-3-0.8c-1.1,0-2.1,0.3-3,0.8c-0.9,0.5-1.6,1.2-2.1,2.1
		c-0.5,0.9-0.8,1.9-0.8,3c0,1.1,0.3,2.1,0.8,3c0.5,0.9,1.2,1.6,2.1,2.1c0.9,0.5,1.9,0.8,3,0.8C173.4,178.3,174.4,178,175.3,177.5z"
		/>
	<path class="st0" d="M184.3,178.5c-1.1-1.2-1.7-2.8-1.7-5v-8.6h2.2v8.6c0,3.3,1.4,4.9,4.3,4.9c1.4,0,2.5-0.4,3.2-1.2
		c0.7-0.8,1.1-2,1.1-3.7v-8.6h2.1v8.6c0,2.2-0.6,3.9-1.7,5c-1.1,1.2-2.7,1.7-4.7,1.7C187,180.2,185.4,179.6,184.3,178.5z"/>
	<path class="st0" d="M209.2,180l-3.3-4.7c-0.4,0-0.7,0-1,0h-3.8v4.6h-2.2v-15.2h5.9c2,0,3.5,0.5,4.6,1.4c1.1,0.9,1.7,2.2,1.7,3.9
		c0,1.2-0.3,2.2-0.9,3c-0.6,0.8-1.4,1.4-2.5,1.8l3.6,5.1H209.2z M208.1,172.7c0.7-0.6,1.1-1.4,1.1-2.5c0-1.1-0.4-1.9-1.1-2.5
		c-0.7-0.6-1.8-0.9-3.1-0.9h-3.7v6.8h3.7C206.3,173.6,207.3,173.3,208.1,172.7z"/>
	<path class="st0" d="M221.1,166.7v5.3h7.6v1.9h-7.6v6.1h-2.2v-15.2h10.7v1.9H221.1z"/>
	<path class="st0" d="M233.4,178.5c-1.1-1.2-1.7-2.8-1.7-5v-8.6h2.2v8.6c0,3.3,1.4,4.9,4.3,4.9c1.4,0,2.5-0.4,3.2-1.2
		c0.7-0.8,1.1-2,1.1-3.7v-8.6h2.1v8.6c0,2.2-0.6,3.9-1.7,5c-1.1,1.2-2.7,1.7-4.7,1.7C236.1,180.2,234.5,179.6,233.4,178.5z"/>
	<path class="st0" d="M250.9,166.7h-5.2v-1.9h12.6v1.9H253V180h-2.1V166.7z"/>
	<path class="st0" d="M261,178.5c-1.1-1.2-1.7-2.8-1.7-5v-8.6h2.2v8.6c0,3.3,1.4,4.9,4.3,4.9c1.4,0,2.5-0.4,3.2-1.2
		c0.7-0.8,1.1-2,1.1-3.7v-8.6h2.1v8.6c0,2.2-0.6,3.9-1.7,5c-1.1,1.2-2.7,1.7-4.7,1.7C263.7,180.2,262.1,179.6,261,178.5z"/>
	<path class="st0" d="M285.9,180l-3.3-4.7c-0.4,0-0.7,0-1,0h-3.8v4.6h-2.2v-15.2h5.9c2,0,3.5,0.5,4.6,1.4c1.1,0.9,1.7,2.2,1.7,3.9
		c0,1.2-0.3,2.2-0.9,3c-0.6,0.8-1.4,1.4-2.5,1.8l3.6,5.1H285.9z M284.8,172.7c0.7-0.6,1.1-1.4,1.1-2.5c0-1.1-0.4-1.9-1.1-2.5
		c-0.7-0.6-1.8-0.9-3.1-0.9h-3.7v6.8h3.7C283,173.6,284,173.3,284.8,172.7z"/>
	<path class="st0" d="M301.7,178.1v1.9h-11v-15.2h10.7v1.9h-8.6v4.7h7.6v1.8h-7.6v4.9H301.7z"/>
	<path class="st0" d="M310.4,179.7c-1.1-0.4-1.9-0.8-2.5-1.4l0.8-1.7c0.6,0.5,1.3,0.9,2.2,1.3c0.9,0.3,1.8,0.5,2.8,0.5
		c1.3,0,2.2-0.2,2.8-0.6c0.6-0.4,0.9-1,0.9-1.7c0-0.5-0.2-0.9-0.5-1.3c-0.3-0.3-0.8-0.6-1.3-0.7c-0.5-0.2-1.2-0.4-2.1-0.6
		c-1.1-0.3-2.1-0.6-2.8-0.8c-0.7-0.3-1.3-0.7-1.8-1.3c-0.5-0.6-0.7-1.3-0.7-2.3c0-0.8,0.2-1.5,0.6-2.2c0.4-0.7,1.1-1.2,1.9-1.6
		c0.9-0.4,1.9-0.6,3.2-0.6c0.9,0,1.8,0.1,2.6,0.3c0.9,0.2,1.6,0.6,2.2,1l-0.7,1.7c-0.6-0.4-1.3-0.7-2-0.9c-0.7-0.2-1.4-0.3-2.1-0.3
		c-1.2,0-2.2,0.2-2.8,0.7c-0.6,0.4-0.9,1-0.9,1.7c0,0.5,0.2,0.9,0.5,1.3c0.3,0.3,0.8,0.6,1.3,0.8c0.5,0.2,1.2,0.4,2.1,0.6
		c1.1,0.3,2.1,0.6,2.8,0.8c0.7,0.3,1.3,0.7,1.8,1.3c0.5,0.6,0.7,1.3,0.7,2.3c0,0.8-0.2,1.5-0.7,2.2c-0.4,0.7-1.1,1.2-2,1.6
		c-0.9,0.4-2,0.6-3.3,0.6C312.6,180.2,311.5,180,310.4,179.7z"/>
	<path class="st0" d="M326.9,173.3l-2.8,2.8v3.9h-2.2v-15.2h2.2v8.5l8.2-8.5h2.5l-6.5,6.8l6.9,8.4h-2.5L326.9,173.3z"/>
	<path class="st0" d="M336.6,164.8h2.2V180h-2.2V164.8z"/>
	<path class="st0" d="M353.5,178.1v1.9h-11v-15.2h10.7v1.9h-8.6v4.7h7.6v1.8h-7.6v4.9H353.5z"/>
	<path class="st0" d="M357.3,179.7c-1.1-0.4-1.9-0.8-2.5-1.4l0.8-1.7c0.6,0.5,1.3,0.9,2.2,1.3c0.9,0.3,1.8,0.5,2.8,0.5
		c1.3,0,2.2-0.2,2.8-0.6c0.6-0.4,0.9-1,0.9-1.7c0-0.5-0.2-0.9-0.5-1.3c-0.3-0.3-0.8-0.6-1.3-0.7c-0.5-0.2-1.2-0.4-2.1-0.6
		c-1.1-0.3-2.1-0.6-2.8-0.8c-0.7-0.3-1.3-0.7-1.8-1.3s-0.7-1.3-0.7-2.3c0-0.8,0.2-1.5,0.6-2.2c0.4-0.7,1.1-1.2,1.9-1.6
		c0.9-0.4,1.9-0.6,3.2-0.6c0.9,0,1.8,0.1,2.6,0.3c0.9,0.2,1.6,0.6,2.2,1l-0.7,1.7c-0.6-0.4-1.3-0.7-2-0.9c-0.7-0.2-1.4-0.3-2.1-0.3
		c-1.2,0-2.2,0.2-2.8,0.7c-0.6,0.4-0.9,1-0.9,1.7c0,0.5,0.2,0.9,0.5,1.3c0.3,0.3,0.8,0.6,1.3,0.8c0.5,0.2,1.2,0.4,2.1,0.6
		c1.1,0.3,2.1,0.6,2.8,0.8c0.7,0.3,1.3,0.7,1.8,1.3c0.5,0.6,0.7,1.3,0.7,2.3c0,0.8-0.2,1.5-0.7,2.2c-0.4,0.7-1.1,1.2-2,1.6
		c-0.9,0.4-2,0.6-3.3,0.6C359.5,180.2,358.4,180,357.3,179.7z"/>
</g>
<g>
	<g>
		<path class="st0" d="M94.4,123.1c-4.6,0-8.8-0.7-12.7-2.2c-3.9-1.5-7.3-3.6-10.2-6.3c-2.9-2.7-5.1-5.9-6.7-9.7
			c-1.6-3.8-2.4-7.9-2.4-12.5c0-4.6,0.8-8.7,2.4-12.5c1.6-3.8,3.9-7,6.7-9.7c2.9-2.7,6.3-4.8,10.2-6.3c3.9-1.5,8.1-2.2,12.7-2.2
			c3.5,0,6.7,0.5,9.5,1.4c2.8,0.9,5.2,2.1,7.3,3.6c2.1,1.5,3.9,3.2,5.3,5.1c1.4,1.9,2.7,3.8,3.7,5.8L107.1,84
			c-0.5-1.2-1.1-2.3-2-3.3c-0.9-1-1.8-2-3-2.7c-1.1-0.8-2.3-1.4-3.6-1.9c-1.3-0.4-2.7-0.7-4.1-0.7c-2.4,0-4.6,0.4-6.7,1.3
			c-2,0.9-3.8,2.1-5.2,3.6c-1.5,1.5-2.6,3.3-3.4,5.4c-0.8,2.1-1.2,4.3-1.2,6.7c0,2.4,0.4,4.7,1.2,6.7c0.8,2.1,1.9,3.9,3.4,5.4
			c1.5,1.5,3.2,2.7,5.2,3.6c2,0.9,4.2,1.3,6.7,1.3c1.4,0,2.8-0.2,4.1-0.7c1.3-0.4,2.5-1.1,3.6-1.9c1.1-0.8,2.1-1.7,3-2.7
			c0.9-1,1.5-2.1,2-3.3l13.1,6.2c-0.9,1.9-2.2,3.8-3.6,5.7c-1.5,1.9-3.3,3.6-5.4,5.1c-2.1,1.5-4.5,2.7-7.3,3.7
			C101.1,122.6,98,123.1,94.4,123.1z"/>
		<path class="st0" d="M334.7,123.1c-4.6,0-8.7-0.8-12.6-2.3c-3.8-1.5-7.2-3.6-10-6.3c-2.8-2.7-5.1-5.9-6.7-9.7
			c-1.6-3.8-2.4-7.9-2.4-12.4c0-4.5,0.8-8.6,2.4-12.4c1.6-3.8,3.8-7,6.7-9.7c2.8-2.7,6.2-4.8,10-6.3c3.8-1.5,8-2.3,12.6-2.3
			c4.5,0,8.7,0.8,12.5,2.3c3.9,1.5,7.2,3.6,10,6.3c2.8,2.7,5,5.9,6.6,9.7c1.6,3.8,2.4,7.9,2.4,12.4c0,4.5-0.8,8.6-2.4,12.4
			c-1.6,3.8-3.8,7-6.6,9.7c-2.8,2.7-6.1,4.8-10,6.3C343.3,122.3,339.2,123.1,334.7,123.1z M334.7,109.6c2.4,0,4.6-0.4,6.6-1.3
			c2-0.9,3.7-2.1,5.1-3.6c1.4-1.5,2.5-3.3,3.2-5.4c0.8-2.1,1.2-4.3,1.2-6.7c0-2.4-0.4-4.7-1.2-6.7c-0.8-2.1-1.8-3.9-3.2-5.4
			c-1.4-1.5-3.1-2.7-5.1-3.6c-2-0.9-4.2-1.3-6.6-1.3c-2.5,0-4.7,0.4-6.7,1.3c-2,0.9-3.7,2.1-5.1,3.6c-1.4,1.5-2.5,3.3-3.2,5.4
			c-0.8,2.1-1.2,4.3-1.2,6.7c0,2.4,0.4,4.7,1.2,6.7c0.8,2.1,1.8,3.9,3.2,5.4c1.4,1.5,3.1,2.7,5.1,3.6
			C330,109.2,332.2,109.6,334.7,109.6z"/>
		<g>
			<path class="st0" d="M140.4,113.5l4.1-13.3L152,78l7.5,22.3l4.2,13.3l0.3,0.9c5.5-0.5,11-0.9,16.6-1.2l-19-50.3h-19.2l-21.4,56.7
				c6-1,12-1.8,18.1-2.6L140.4,113.5z"/>
			<path class="st0" d="M200.8,87.8l17.9,24.5c7.3,0.1,14.5,0.3,21.8,0.6v-50h-15.3v32.5l-23.9-32.5h-15.7V113
				c5.1-0.2,10.2-0.4,15.3-0.5V87.8z"/>
			<path class="st0" d="M297,111.4c1.1-2.5,1.6-5.2,1.6-8.1c0-3.7-0.8-6.6-2.5-8.9c-1.7-2.3-3.7-4.1-6.2-5.5c-2.5-1.4-5.2-2.4-8-3.1
				c-2.9-0.7-5.6-1.3-8-1.9c-2.5-0.6-4.6-1.2-6.2-1.8c-1.7-0.6-2.5-1.6-2.5-2.8c0-1.2,0.5-2.3,1.5-3.1c1-0.8,2.6-1.2,4.9-1.2
				c3,0,6,0.5,9,1.5c3,1,5.8,2.5,8.3,4.6l8.3-10.9c-6.4-5.5-14.4-8.2-24-8.2c-3.8,0-7.1,0.5-10,1.6c-2.9,1-5.4,2.4-7.4,4.1
				c-2,1.7-3.5,3.7-4.5,6c-1,2.3-1.5,4.7-1.5,7.1c0,3.8,0.8,6.8,2.5,9.1c1.7,2.3,3.7,4.1,6.2,5.5c2.5,1.4,5.2,2.4,8.1,3.1
				c2.9,0.7,5.6,1.3,8.1,1.9c2.5,0.6,4.6,1.2,6.2,1.8c1.7,0.7,2.5,1.7,2.5,3c0,1.4-0.7,2.6-2.2,3.5c-1.5,0.9-3.5,1.4-6.2,1.4
				c-4.1,0-7.7-0.8-10.9-2.3c-3.2-1.5-5.9-3.4-8-5.5l-7.8,11.1c14.9,0.9,29.7,2.3,44.3,4.3C294.3,115.9,295.9,113.9,297,111.4z"/>
		</g>
	</g>
	<g>
		<path class="st1" d="M75.5,141.6c39.5-9.9,80.2-15.5,121-16.7c40.9-1.2,82,1.9,122.4,9.5c2.7,0.5,4.4,3.1,3.9,5.7
			c-0.5,2.7-3.1,4.4-5.7,3.9c-0.1,0-0.1,0-0.2,0c-39.4-9-79.8-13.8-120.3-14.2C156,129.3,115.4,133.3,75.5,141.6z"/>
	</g>
</g>
</svg>
